<?xml version="1.0" standalone="no"?><svg xmlns="http://www.w3.org/2000/svg" viewBox="0 0 1440 320"><path fill="#6495ed" fill-opacity="0.5" d="M0,224L16,192C32,160,64,96,96,106.7C128,117,160,203,192,250.7C224,299,256,309,288,282.7C320,256,352,192,384,138.7C416,85,448,43,480,74.7C512,107,544,213,576,224C608,235,640,149,672,101.3C704,53,736,43,768,74.7C800,107,832,181,864,192C896,203,928,149,960,112C992,75,1024,53,1056,80C1088,107,1120,181,1152,213.3C1184,245,1216,235,1248,192C1280,149,1312,75,1344,58.7C1376,43,1408,85,1424,106.7L1440,128L1440,0L1424,0C1408,0,1376,0,1344,0C1312,0,1280,0,1248,0C1216,0,1184,0,1152,0C1120,0,1088,0,1056,0C1024,0,992,0,960,0C928,0,896,0,864,0C832,0,800,0,768,0C736,0,704,0,672,0C640,0,608,0,576,0C544,0,512,0,480,0C448,0,416,0,384,0C352,0,320,0,288,0C256,0,224,0,192,0C160,0,128,0,96,0C64,0,32,0,16,0L0,0Z"></path></svg>